<?xml version="1.0" encoding="UTF-8" standalone="no"?>
<!-- Created with Inkscape (http://www.inkscape.org/) -->

<svg
   xmlns:dc="http://purl.org/dc/elements/1.1/"
   xmlns:cc="http://creativecommons.org/ns#"
   xmlns:rdf="http://www.w3.org/1999/02/22-rdf-syntax-ns#"
   xmlns:svg="http://www.w3.org/2000/svg"
   xmlns="http://www.w3.org/2000/svg"
   xmlns:sodipodi="http://sodipodi.sourceforge.net/DTD/sodipodi-0.dtd"
   xmlns:inkscape="http://www.inkscape.org/namespaces/inkscape"
   id="svg2816"
   version="1.1"
   inkscape:version="0.47 r22583"
   width="1185.22"
   height="804.34003"
   sodipodi:docname="ETicket_Logo.svg">
  <metadata
     id="metadata2822">
    <rdf:RDF>
      <cc:Work
         rdf:about="">
        <dc:format>image/svg+xml</dc:format>
        <dc:type
           rdf:resource="http://purl.org/dc/dcmitype/StillImage" />
        <dc:title></dc:title>
      </cc:Work>
    </rdf:RDF>
  </metadata>
  <defs
     id="defs2820" />
  <sodipodi:namedview
     pagecolor="#ffffff"
     bordercolor="#666666"
     borderopacity="1"
     objecttolerance="10"
     gridtolerance="10"
     guidetolerance="10"
     inkscape:pageopacity="0"
     inkscape:pageshadow="2"
     inkscape:window-width="1280"
     inkscape:window-height="750"
     id="namedview2818"
     showgrid="false"
     inkscape:zoom="0.295"
     inkscape:cx="767.897"
     inkscape:cy="296.03188"
     inkscape:window-x="-8"
     inkscape:window-y="-8"
     inkscape:window-maximized="1"
     inkscape:current-layer="svg2816" />
  <path
     style="fill:#009de0;fill-opacity:1;fill-rule:nonzero;stroke:none"
     d="m 678.14258,152.44028 455.83572,-0.1498 c 18.8118,0.58865 46.1938,11.58577 49.4375,45.61275 l -0.095,376.23289 c -0.3926,28.5016 -24.1544,48.96951 -49.9146,47.25967 l -448.28147,-0.006 c 47.03605,-26.82998 81.03412,-69.54244 103.69058,-111.80172 L 700.23348,508.8278 C 578.67015,650.2917 390.26796,556.24985 367.33246,429.44273 l 447.73715,0.36755 c 11.7678,-106.85344 -19.73756,-202.00607 -136.92703,-277.37 z"
     id="rect2828"
     sodipodi:nodetypes="ccccccccccc" />
  <path
     style="fill:#009de0;fill-opacity:1;fill-rule:nonzero;stroke:none"
     d="m 743.37194,352.48103 -375.3134,0.0375 c 59.02665,-219.78507 341.61304,-191.39631 375.3134,-0.0375 z"
     id="rect3603"
     sodipodi:nodetypes="ccc" />
  <path
     style="fill:#009de0;fill-opacity:1;fill-rule:nonzero;stroke:none"
     d="m 430.44565,153.27439 c -199.78241,115.61977 -188.32466,370.1288 5.65724,476.514 13.88206,13.17674 2.205,41.79535 -23.75975,33.83521 C 196.3112,543.65612 180.57435,248.90425 409.0164,117.82993 c 19.5585,-7.03001 40.14308,15.26512 21.42925,35.44446 z"
     id="path3606"
     sodipodi:nodetypes="ccccc" />
  <path
     style="fill:#009de0;fill-opacity:1;fill-rule:nonzero;stroke:none"
     d="m 320.37778,89.844704 c -214.10834,158.276706 -198.3784,463.745506 6.30476,604.006166 16.75197,16.10809 2.48074,46.31149 -23.6827,34.88342 C 80.500769,573.01873 53.806261,238.13516 297.72199,53.77681 c 20.4291,-14.596853 50.01416,12.071282 22.65579,36.067894 z"
     id="path3606-1"
     sodipodi:nodetypes="ccccc" />
  <path
     style="fill:#009de0;fill-opacity:1;fill-rule:nonzero;stroke:none"
     d="M 206.88078,41.073536 C -26.517057,251.67254 3.9407587,590.66907 208.88654,763.9921 c 20.18661,19.14372 -2.50325,50.93417 -26.8692,31.99428 C -46.128975,590.09241 -70.941614,239.08825 179.91496,9.2761272 198.41959,-12.540579 236.40967,15.62454 206.88078,41.073536 z"
     id="path3606-1-7"
     sodipodi:nodetypes="ccccc" />
</svg>
