<svg width="224" height="84" viewBox="0 0 224 84" fill="none" xmlns="http://www.w3.org/2000/svg">
<g clip-path="url(#clip0_487_37)">
<g clip-path="url(#clip1_487_37)">
<rect x="-21" y="-18" width="49" height="50" rx="24.5" fill="#8EC640"/>
<rect x="96.0242" y="-13.7051" width="49" height="50" rx="24.5" transform="rotate(94.9276 96.0242 -13.7051)" fill="#47B3E3"/>
<rect x="103.819" y="71.2861" width="49" height="50" rx="24.5" transform="rotate(130.22 103.819 71.2861)" fill="#FDDE19"/>
<rect x="9.74304" y="109.762" width="49" height="50" rx="24.5" transform="rotate(-140.378 9.74304 109.762)" fill="#F34242"/>
<path d="M-11 4.5C-11 -4.06041 -4.06041 -11 4.5 -11C13.0604 -11 20 -4.06041 20 4.5V8.5C20 17.0604 13.0604 24 4.5 24C-4.06041 24 -11 17.0604 -11 8.5V4.5Z" fill="white"/>
<path d="M71.8091 -5.81482C80.3659 -5.56517 87.1001 1.57384 86.8505 10.1306C86.6008 18.6874 79.4618 25.4216 70.905 25.172L66.9067 25.0553C58.35 24.8057 51.6157 17.6667 51.8654 9.10991C52.115 0.553142 59.254 -6.18112 67.8108 -5.93147L71.8091 -5.81482Z" fill="white"/>
<path d="M79.9279 61.3811C87.2404 66.8841 88.7074 77.2732 83.2043 84.5858C77.7013 91.8984 67.3122 93.3653 59.9996 87.8622L58.515 86.745C51.2024 81.242 49.7355 70.8528 55.2385 63.5403C60.7416 56.2277 71.1307 54.7608 78.4432 60.2638L79.9279 61.3811Z" fill="white"/>
<path d="M16.8868 85.3572C11.4276 91.9511 1.65674 92.8709 -4.93707 87.4117C-11.5309 81.9525 -12.4507 72.1817 -6.99153 65.5879L-4.44064 62.5068C1.01852 55.913 10.7894 54.9932 17.3832 60.4524C23.977 65.9115 24.8968 75.6824 19.4376 82.2762L16.8868 85.3572Z" fill="white"/>
<rect y="4" width="12" height="12" rx="6" fill="#8EC640"/>
<rect x="63" y="4" width="12" height="12" rx="6" fill="#47B3E3"/>
<rect x="63" y="68" width="12" height="12" rx="6" fill="#FDDE19"/>
<rect y="68" width="12" height="12" rx="6" fill="#F34242"/>
</g>
<path d="M115.469 66.9062L98.2656 67C97.9531 67 97.7969 66.8438 97.7969 66.5312L97.9844 0.578125C97.9844 0.328125 98.1094 0.203125 98.3594 0.203125L116.312 0.109375C119.875 0.015625 123.094 0.828125 125.969 2.54688C128.875 4.26563 131.188 6.59375 132.906 9.53125C134.656 12.4375 135.531 15.6563 135.531 19.1875V46.75C135.531 50.4375 134.641 53.8125 132.859 56.875C131.047 59.9062 128.641 62.3281 125.641 64.1406C122.641 65.9219 119.25 66.8438 115.469 66.9062ZM116.312 11.5938L109.609 11.6875L109.516 55.1875H115.469C117.844 55.1875 119.844 54.3594 121.469 52.7031C123.094 51.0469 123.906 49.0625 123.906 46.75V19.0938C123.906 17.0625 123.156 15.2969 121.656 13.7969C120.156 12.2656 118.375 11.5313 116.312 11.5938ZM172.938 67H162.109C161.859 67 161.734 66.8438 161.734 66.5312V55.2812H140.969C140.719 55.2812 140.594 55.125 140.594 54.8125V44.2656L161.5 0.578125C161.656 0.328125 161.859 0.203125 162.109 0.203125H172.938C173.125 0.203125 173.219 0.328125 173.219 0.578125L173.312 43.8438H180.062C180.375 43.8438 180.531 44.0156 180.531 44.3594V54.8125C180.531 55.125 180.406 55.2812 180.156 55.2812H173.312V66.5312C173.312 66.8438 173.188 67 172.938 67ZM151.938 43.8438H161.734V22.9375L151.938 43.8438ZM203.266 67.9375C199.891 67.9375 196.766 67.0625 193.891 65.3125C191.016 63.5625 188.719 61.2188 187 58.2812C185.312 55.3125 184.469 52.0781 184.469 48.5781V46.6562C184.469 46.4062 184.625 46.2812 184.938 46.2812H195.719C195.969 46.2812 196.094 46.4062 196.094 46.6562V48.5781C196.094 50.6719 196.797 52.4844 198.203 54.0156C199.609 55.5156 201.297 56.2656 203.266 56.2656C205.266 56.2656 206.969 55.5156 208.375 54.0156C209.781 52.4844 210.484 50.6719 210.484 48.5781V41.9219C208.234 42.8906 205.828 43.375 203.266 43.375C199.797 43.375 196.672 42.5156 193.891 40.7969C191.078 39.0781 188.812 36.7656 187.094 33.8594C185.406 30.9219 184.562 27.7031 184.562 24.2031V18.25C184.562 14.6875 185.422 11.4844 187.141 8.64062C188.828 5.76563 191.094 3.46875 193.938 1.75C196.781 0 199.891 -0.875 203.266 -0.875C206.672 -0.875 209.797 -0.015625 212.641 1.70312C215.484 3.42188 217.766 5.75 219.484 8.6875C221.234 11.5938 222.109 14.7812 222.109 18.25V24.2031L222.203 48.5781C222.203 52.0781 221.344 55.2969 219.625 58.2344C217.906 61.1719 215.609 63.5312 212.734 65.3125C209.891 67.0625 206.734 67.9375 203.266 67.9375ZM203.266 31.75C205.328 31.75 207.047 31.0156 208.422 29.5469C209.797 28.0781 210.484 26.2969 210.484 24.2031V18.25C210.484 16.1875 209.781 14.4062 208.375 12.9062C206.969 11.4062 205.266 10.6562 203.266 10.6562C201.297 10.6562 199.625 11.3906 198.25 12.8594C196.875 14.3281 196.188 16.125 196.188 18.25V24.2031C196.188 26.2344 196.875 28 198.25 29.5C199.625 31 201.297 31.75 203.266 31.75Z" fill="#333333"/>
<path d="M100.859 82.9971C101.917 82.9971 102.709 82.6776 103.233 82.0386C103.762 81.3953 104.027 80.5067 104.027 79.3726C104.027 78.5135 103.875 77.7983 103.57 77.2271C103.265 76.6515 102.814 76.2368 102.218 75.9829C101.82 75.8136 101.357 75.729 100.828 75.729H99.4121V82.9971H100.859ZM98.2822 84.0063V74.7261H100.815C101.877 74.7261 102.753 74.9694 103.443 75.4561C104.137 75.9427 104.63 76.6134 104.922 77.4683C105.121 78.0396 105.22 78.6743 105.22 79.3726C105.22 80.4474 104.998 81.3509 104.554 82.083C104.114 82.8151 103.496 83.3441 102.7 83.6699C102.159 83.8942 101.545 84.0063 100.859 84.0063H98.2822ZM106.439 84.0063V74.7261H111.987V75.729H107.569V78.6807H111.625V79.6836H107.569V83.0098H112.196V84.0063H106.439ZM115.053 82.6226C115.412 82.9696 115.927 83.1431 116.595 83.1431C117.264 83.1431 117.778 82.9696 118.138 82.6226C118.502 82.2713 118.684 81.7635 118.684 81.0991V74.7134H119.801V81.042C119.801 81.7995 119.625 82.4279 119.274 82.9272C118.923 83.4224 118.442 83.7715 117.833 83.9746C117.444 84.1016 117.031 84.165 116.595 84.165C115.872 84.165 115.258 84.0106 114.754 83.7017C114.251 83.3885 113.881 82.959 113.644 82.4131C113.474 82.0238 113.39 81.5667 113.39 81.042V74.7134H114.52V81.0991C114.52 81.7677 114.697 82.2756 115.053 82.6226ZM123.489 75.748H121.064V74.7451H127.037V75.748H124.612V84.0381H123.489V75.748ZM133.175 76.5986C132.769 75.93 132.16 75.5957 131.347 75.5957C130.937 75.5957 130.585 75.6698 130.293 75.8179C130.001 75.9618 129.792 76.1712 129.665 76.4463C129.589 76.6113 129.551 76.7848 129.551 76.9668C129.551 77.0811 129.563 77.1911 129.589 77.2969C129.614 77.3984 129.646 77.4915 129.684 77.5762C129.722 77.6566 129.775 77.737 129.843 77.8174C129.915 77.8936 129.98 77.9591 130.04 78.0142C130.103 78.0692 130.186 78.1263 130.287 78.1855C130.389 78.2406 130.473 78.2871 130.541 78.3252C130.613 78.359 130.708 78.3993 130.827 78.4458C130.949 78.4924 131.045 78.5283 131.112 78.5537C131.18 78.5749 131.277 78.6066 131.404 78.6489C131.531 78.6912 131.622 78.7209 131.677 78.7378C131.927 78.8267 132.13 78.9007 132.287 78.96C132.447 79.0192 132.636 79.0996 132.852 79.2012C133.072 79.3027 133.254 79.4043 133.397 79.5059C133.546 79.6032 133.692 79.7259 133.835 79.874C133.984 80.0179 134.106 80.1745 134.204 80.3438C134.369 80.6273 134.451 80.9785 134.451 81.3975C134.451 81.8122 134.364 82.1867 134.191 82.521C134.017 82.8553 133.791 83.1431 133.512 83.3843C133.22 83.6297 132.873 83.8265 132.471 83.9746C132.069 84.1185 131.631 84.1904 131.157 84.1904C130.856 84.1904 130.569 84.1608 130.293 84.1016C130.023 84.0465 129.775 83.9683 129.551 83.8667C129.326 83.7609 129.121 83.6403 128.935 83.5049C128.753 83.3652 128.586 83.2087 128.434 83.0352C128.222 82.7982 128.053 82.5337 127.926 82.2417L128.999 81.7085C129.104 82.1571 129.346 82.5083 129.722 82.7622C130.103 83.0119 130.571 83.1367 131.125 83.1367C131.59 83.1367 131.995 83.0457 132.337 82.8638C132.684 82.6776 132.94 82.4237 133.105 82.1021C133.207 81.8989 133.258 81.6831 133.258 81.4546C133.258 81.3192 133.239 81.1922 133.201 81.0737C133.163 80.9552 133.118 80.8537 133.067 80.769C133.017 80.6802 132.943 80.5955 132.845 80.5151C132.748 80.4305 132.661 80.3649 132.585 80.3184C132.509 80.2676 132.403 80.2126 132.268 80.1533C132.132 80.0898 132.026 80.0433 131.95 80.0137C131.874 79.984 131.764 79.9438 131.62 79.8931C131.59 79.8846 131.569 79.8783 131.557 79.874C131.464 79.8359 131.32 79.7852 131.125 79.7217C130.935 79.654 130.789 79.6032 130.687 79.5693C130.585 79.5312 130.448 79.4784 130.274 79.4106C130.105 79.3429 129.968 79.2837 129.862 79.2329C129.76 79.1779 129.64 79.1102 129.5 79.0298C129.36 78.9494 129.244 78.869 129.151 78.7886C129.058 78.7039 128.963 78.6087 128.865 78.5029C128.768 78.3929 128.683 78.2786 128.611 78.1602C128.442 77.8682 128.357 77.5085 128.357 77.0811C128.357 76.3786 128.635 75.7861 129.189 75.3037C129.451 75.0794 129.764 74.9038 130.128 74.7769C130.492 74.6457 130.892 74.5801 131.328 74.5801C131.971 74.5801 132.534 74.7155 133.017 74.9863C133.499 75.2572 133.897 75.619 134.21 76.0718L133.175 76.5986ZM139.218 83.1113C139.811 83.1113 140.278 82.9569 140.621 82.6479C140.968 82.3348 141.226 81.8968 141.396 81.334L142.494 81.6577C142.07 82.8468 141.353 83.6107 140.342 83.9492C139.999 84.0635 139.625 84.1206 139.218 84.1206C138.063 84.1206 137.157 83.6699 136.501 82.7686C135.875 81.9095 135.562 80.7712 135.562 79.3535C135.562 78.2871 135.738 77.3709 136.089 76.605C136.44 75.8348 136.956 75.2741 137.638 74.9229C138.09 74.6859 138.613 74.5674 139.206 74.5674C140.365 74.5674 141.273 75.0265 141.929 75.9448C142.14 76.241 142.316 76.5754 142.456 76.9478L141.364 77.2651C141.19 76.7192 140.934 76.3024 140.596 76.0146C140.261 75.7269 139.798 75.583 139.206 75.583C137.987 75.583 137.219 76.3215 136.901 77.7983C136.804 78.2638 136.755 78.7822 136.755 79.3535C136.755 81.1647 137.212 82.3285 138.126 82.8447C138.435 83.0225 138.799 83.1113 139.218 83.1113ZM144.614 79.6836V84.0063H143.484V74.7324H144.614V78.6807H148.778V74.7324H149.895V84.0063H148.778V79.6836H144.614ZM151.171 84.0063V74.7388H152.301V83.0098H156.3V84.0063H151.171ZM161.968 74.7451L165.212 84.0063H163.904L163.073 81.4736H159.524L158.693 84.0063H157.385L160.629 74.7451H161.968ZM159.823 80.4707H162.768L161.295 76.1035L159.823 80.4707ZM171.325 84L167.275 76.2749L167.307 77.354V84H166.247V74.7769H167.7L171.769 82.4448L171.744 81.499V74.7769H172.804V84H171.325ZM176.663 82.9971C177.721 82.9971 178.512 82.6776 179.037 82.0386C179.566 81.3953 179.831 80.5067 179.831 79.3726C179.831 78.5135 179.678 77.7983 179.374 77.2271C179.069 76.6515 178.618 76.2368 178.021 75.9829C177.624 75.8136 177.16 75.729 176.631 75.729H175.216V82.9971H176.663ZM174.086 84.0063V74.7261H176.619C177.681 74.7261 178.557 74.9694 179.247 75.4561C179.941 75.9427 180.434 76.6134 180.726 77.4683C180.924 78.0396 181.024 78.6743 181.024 79.3726C181.024 80.4474 180.802 81.3509 180.357 82.083C179.917 82.8151 179.299 83.3441 178.504 83.6699C177.962 83.8942 177.349 84.0063 176.663 84.0063H174.086ZM184.667 75.748H182.243V74.7451H188.216V75.748H185.791V84.0381H184.667V75.748ZM189.46 74.7324H190.641V84.0063H189.46V74.7324ZM195.573 83.1113C196.165 83.1113 196.633 82.9569 196.976 82.6479C197.323 82.3348 197.581 81.8968 197.75 81.334L198.848 81.6577C198.425 82.8468 197.708 83.6107 196.696 83.9492C196.354 84.0635 195.979 84.1206 195.573 84.1206C194.417 84.1206 193.512 83.6699 192.856 82.7686C192.23 81.9095 191.917 80.7712 191.917 79.3535C191.917 78.2871 192.092 77.3709 192.443 76.605C192.795 75.8348 193.311 75.2741 193.992 74.9229C194.445 74.6859 194.968 74.5674 195.56 74.5674C196.72 74.5674 197.627 75.0265 198.283 75.9448C198.495 76.241 198.67 76.5754 198.81 76.9478L197.718 77.2651C197.545 76.7192 197.289 76.3024 196.95 76.0146C196.616 75.7269 196.153 75.583 195.56 75.583C194.341 75.583 193.573 76.3215 193.256 77.7983C193.159 78.2638 193.11 78.7822 193.11 79.3535C193.11 81.1647 193.567 82.3285 194.481 82.8447C194.79 83.0225 195.154 83.1113 195.573 83.1113ZM202.892 78.6299L206.745 84.0063H205.374L202.124 79.4487L200.994 80.7056V84.0063H199.864V74.7324H200.994V79.1631L205.113 74.7324H206.434L202.892 78.6299ZM207.621 84.0063V74.7261H213.168V75.729H208.75V78.6807H212.807V79.6836H208.75V83.0098H213.378V84.0063H207.621ZM217.002 75.748H214.578V74.7451H220.551V75.748H218.126V84.0381H217.002V75.748Z" fill="#333333"/>
</g>
<defs>
<clipPath id="clip0_487_37">
<rect width="224" height="84" fill="white"/>
</clipPath>
<clipPath id="clip1_487_37">
<rect width="75" height="76" fill="white" transform="translate(0 4)"/>
</clipPath>
</defs>
</svg>
